<?xml version="1.0" encoding="utf-8"?>
<!-- Generator: Adobe Illustrator 26.0.3, SVG Export Plug-In . SVG Version: 6.00 Build 0)  -->
<svg version="1.0" id="katman_1" xmlns="http://www.w3.org/2000/svg" xmlns:xlink="http://www.w3.org/1999/xlink" x="0px" y="0px"
	 viewBox="0 0 800 600" style="enable-background:new 0 0 800 600;" xml:space="preserve">
<style type="text/css">
	.st0{fill:#484848;}
	.st1{fill:#FFFFFF;}
	.st2{fill:#D75EA1;}
</style>
<g id="icon_x2F_polkadot">
	<circle id="Oval" class="st0" cx="399.8" cy="299.6" r="240.3"/>
	<g id="logo.096371c0" transform="translate(11.755102, 26.448980)">
		<path id="Shape" class="st1" d="M247.6,285.1c2-9.2,5.5-31.7,10-43.8c1.1-3,8.4-4.4,12.5-1c-3.1,11.1-5.9,27.9-5.9,27.9
			c1.5-0.1,2.8-0.5,4.1-1.2c1.3-0.7,2.5-1.5,3.6-2.6c1.1-1,2.1-2.3,3-3.6c0.9-1.4,1.7-2.8,2.3-4.3c0.6-1.5,1.1-3.1,1.4-4.7
			c0.3-1.6,0.5-3.2,0.5-4.7c0-1.6-0.2-3.1-0.6-4.5c-0.4-1.4-1-2.7-1.9-3.7c-0.9-1.1-2-1.9-3.3-2.5c-1.4-0.6-3-0.9-4.8-0.9
			c-3.5,0-6.6,0.5-9.4,1.4c-2.8,0.9-5.1,2.3-7,4.1c-1.9,1.8-3.7,4-4.9,6.6c-1.2,2.6-1.8,5.5-1.8,8.8c0,1.1,0.1,2,0.2,2.7
			c0.2,0.7,0.3,1.2,0.5,1.6c0.2,0.4,0.3,0.7,0.5,0.9c0.2,0.2,0.2,0.4,0.2,0.6c-1.8,0-3.3-0.1-4.7-0.4c-1.4-0.3-2.5-0.8-3.4-1.4
			c-0.9-0.6-1.6-1.5-2.1-2.6c-0.5-1.1-0.7-2.4-0.7-3.9c0-1.9,0.5-3.8,1.5-5.6c1-1.8,2.4-3.6,4.1-5.2c5.1-5,10.9-8.5,19.8-10.6
			c2.4-0.6,4.8-0.9,7.2-0.9c3.5,0,6.6,0.5,9.1,1.4c2.5,0.9,4.6,2.2,6.3,3.7c1.7,1.6,2.9,3.4,3.7,5.4c0.8,2,1.2,4.1,1.2,6.3
			c0,2.7-0.6,5.5-1.7,8.2c-1.1,2.7-2.8,5.2-4.9,7.4c-2.1,2.2-4.7,4-7.8,5.3s-6.5,2.1-10.4,2.1h-0.5c0,0-4.7,21.1-6.9,28.3
			c-2.1,6.9-7.5,10.1-15.3,10.1C241.4,309.8,246.3,291.3,247.6,285.1"/>
		<path id="Shape_00000069362015704789518870000010779394314837797540_" class="st1" d="M313.8,276.2c-0.9,2.2-5.3,4.1-8.4,2.8
			c-0.3,3.7-1,7.1-2.1,10.1s-2.5,5.5-4.2,7.6c-1.7,2.1-3.7,3.7-5.9,4.8c-2.2,1.1-4.5,1.7-7,1.7c-1.9,0-3.6-0.2-5.2-0.7
			c-1.6-0.5-3-1.2-4.1-2.2c-1.1-1-2-2.3-2.7-3.9c-0.6-1.6-1-3.6-1-5.9c0-1.6,0.2-3.4,0.5-5.4c0.3-2,0.9-4.1,1.6-6.2
			c0.7-2.1,1.7-4.2,2.8-6.2c1.1-2,2.5-3.9,4.2-5.5c1.6-1.6,3.5-2.9,5.7-3.9c2.2-1,4.6-1.5,7.4-1.5c6.9,0,10.4,4.3,10.4,12.9
			c0,0,0,0.1,0,0.1c4.3,2.1,7.7-0.6,8.9-2.7 M298.7,279.3c-0.8-0.2-1.4-0.6-1.7-1.2c-0.3-0.6-0.5-1.3-0.5-2.1c0-1.1,0.2-2.1,0.7-2.8
			c0.5-0.7,1.1-1.3,1.8-1.6c-0.1-0.9-0.1-1.6-0.3-2.2c-0.1-0.6-0.3-1.1-0.6-1.5c-0.2-0.4-0.5-0.6-0.9-0.8c-0.4-0.2-0.8-0.2-1.4-0.2
			c-1,0-1.9,0.4-2.8,1.1c-0.9,0.7-1.7,1.7-2.5,3c-0.8,1.2-1.5,2.6-2.2,4.2c-0.7,1.6-1.2,3.2-1.7,4.9c-0.5,1.7-0.8,3.3-1.1,5
			c-0.3,1.6-0.4,3.1-0.4,4.5c0,1.3,0.1,2.4,0.2,3.3c0.1,0.8,0.4,1.5,0.7,2c0.3,0.5,0.8,0.8,1.3,1c0.5,0.2,1.2,0.3,1.9,0.3
			c1,0,1.9-0.4,2.9-1.3c1-0.9,1.9-2,2.7-3.5c0.8-1.5,1.6-3.3,2.2-5.3C297.9,283.9,298.3,281.7,298.7,279.3"/>
		<path id="Shape_00000134240345368514648460000017196026739925897374_" class="st1" d="M332,291.5c0.5-0.9,0.9-2,1.2-3l3.8,0
			c-0.8,2.2-1.6,4.1-2.5,5.7c-0.9,1.6-1.9,3-2.9,4.1c-1,1.1-2,2-3.1,2.7c-1.1,0.7-2.1,1.2-3.1,1.6c-1,0.4-2,0.6-2.9,0.7
			c-0.9,0.1-1.7,0.2-2.4,0.2c-1.2,0-2.3-0.2-3.4-0.6c-1.1-0.4-2-0.9-2.7-1.7c-0.8-0.8-1.4-1.8-1.8-3c-0.4-1.2-0.8-2.7-0.7-4.4
			c0.7-14.4,8.3-45.7,8.3-45.7c4.9-0.6,11.9-1.6,11.9-1.6s-8.7,40-8.6,46.1c0,1.7,0.7,3,3.3,3C329.1,295.7,331.3,292.6,332,291.5"/>
		<path id="Shape_00000166655848269964777030000000279493555500432063_" class="st1" d="M364.9,290.1c0.2-1,0.9-4,0.9-4
			c0.1-0.5,0.2-1,0.3-1.6c0-0.5,0.1-1,0.1-1.5c0-1.3-0.2-2.5-0.5-3.6c-0.4-1.1-0.9-2.1-1.6-3c-0.7-0.9-1.7-1.5-2.8-2
			c-1.1-0.5-2.4-0.7-3.9-0.7c-0.9,0-1.8,0.1-2.7,0.4l17.9-12.5l-9.7,1.3l-15.6,12.2l6.4-30.9l-11.9,1.7c0,0-2.7,13.4-5.6,29
			c-2.4,13.1-6.5,28.4-6.5,28.4h11.6l4.2-19.9c1.1-0.9,2.2-1.6,3.1-2.2c1-0.5,1.9-0.8,2.8-0.8c1.1,0,1.9,0.4,2.3,1.1
			c0.4,0.7,0.6,1.7,0.6,2.8c0,0.4,0,0.9-0.1,1.4c0,0.5-0.1,1-0.3,1.5l-0.7,3.1c-0.3,1.5-0.5,3-0.5,4.2c0,2.9,0.9,5.2,2.6,6.8
			c1.7,1.6,4.2,2.4,7.6,2.4c0.9,0,2-0.1,3.2-0.4c1.2-0.3,2.5-0.9,3.9-1.9c1.3-1,2.7-2.5,4-4.5c1.4-2,2.6-4.7,3.7-8.1h-3.4
			c-0.4,1.1-0.8,2-1.3,2.9c-1.5,2.8-3.5,5.8-5.9,6.3C361.8,299,364.4,293.1,364.9,290.1"/>
		<path id="Shape_00000005253619851540351770000018178082989395152010_" class="st1" d="M408,292.7c-0.2,2.3,1.1,3.5,3.3,3.5
			c0.8,0,1.5-0.2,2.2-0.6c0.7-0.4,1.3-1,1.8-1.6c0.6-0.7,1-1.5,1.5-2.4c0.4-0.9,0.8-1.9,1.1-2.9h3.4c-0.8,2.2-1.6,4.1-2.5,5.7
			c-0.9,1.6-1.8,3-2.8,4.1c-1,1.1-1.9,2-2.9,2.7c-1,0.7-2,1.2-2.9,1.6c-0.9,0.4-1.9,0.6-2.7,0.7c-0.9,0.1-1.7,0.2-2.4,0.2
			c-2.3,0-4.1-0.6-5.5-1.9c-1.4-1.2-2.2-3.1-2.5-5.5c-0.7,0.9-1.4,1.8-2.2,2.7c-0.8,0.9-1.7,1.7-2.6,2.4c-1,0.7-2.1,1.3-3.3,1.7
			c-1.2,0.4-2.5,0.6-4,0.6c-1.4,0-2.7-0.2-4-0.7c-1.3-0.4-2.4-1.2-3.4-2.2c-1-1-1.8-2.4-2.4-4c-0.6-1.7-0.9-3.7-0.9-6.1
			c0-1.8,0.2-3.8,0.6-5.9c0.4-2.1,0.9-4.2,1.7-6.3c0.8-2.1,1.7-4.1,2.9-6c1.1-1.9,2.5-3.6,4-5.1c1.5-1.5,3.3-2.7,5.2-3.5
			c1.9-0.9,4.1-1.3,6.4-1.3c2.3,0,3.9,0.4,5,1.2c1,0.8,1.6,1.8,1.6,2.9v0.6l0.9-4.3c0,0,7.6-0.6,11.8-1.3
			C411,271.8,408.3,287.4,408,292.7L408,292.7z M400.9,270.4c0-0.2-0.1-0.5-0.2-0.9c-0.1-0.4-0.3-0.7-0.5-1c-0.3-0.3-0.6-0.6-1-0.8
			c-0.4-0.2-1-0.3-1.6-0.3c-1.1,0-2.2,0.4-3.2,1.1c-1,0.7-1.9,1.7-2.8,2.9c-0.8,1.2-1.6,2.6-2.2,4.2c-0.7,1.6-1.2,3.1-1.7,4.8
			c-0.5,1.6-0.8,3.3-1,4.8c-0.2,1.6-0.4,3-0.4,4.3c0,1.5,0.1,2.7,0.4,3.6c0.3,0.8,0.6,1.5,1,1.9c0.4,0.4,0.8,0.7,1.3,0.7
			c0.5,0.1,0.9,0.1,1.3,0.1c0.6,0,1.2-0.2,1.9-0.5c0.7-0.3,1.3-0.7,1.9-1.3c0.6-0.6,1.2-1.3,1.7-2.2c0.5-0.9,0.9-1.9,1.2-3.1
			L400.9,270.4z"/>
		<path id="Shape_00000027603724993204899130000018263134128802197675_" class="st1" d="M464.5,288.5c-0.8,2.2-1.6,4.1-2.5,5.6
			c-0.9,1.6-1.8,2.9-2.8,4c-1,1.1-1.9,1.9-2.9,2.6c-1,0.6-2,1.1-2.9,1.5c-0.9,0.3-1.9,0.6-2.7,0.7c-0.9,0.1-1.7,0.2-2.4,0.2
			c-2.2,0-4-0.6-5.4-1.8c-1.4-1.2-2.2-2.9-2.5-5.2c-0.6,0.9-1.3,1.8-2.1,2.7c-0.8,0.9-1.7,1.7-2.6,2.4s-2.1,1.3-3.3,1.7
			c-1.2,0.4-2.5,0.6-3.9,0.6c-1.4,0-2.7-0.2-4-0.7c-1.3-0.4-2.4-1.2-3.4-2.2c-1-1-1.8-2.4-2.4-4c-0.6-1.7-0.9-3.7-0.9-6.1
			c0-1.8,0.2-3.8,0.6-5.9c0.4-2.1,0.9-4.2,1.7-6.3c0.8-2.1,1.7-4.1,2.9-6c1.1-1.9,2.5-3.6,4-5.1c1.5-1.5,3.3-2.7,5.2-3.5
			c1.9-0.9,4.1-1.3,6.4-1.3c2.3,0,3.9,0.4,5,1.2c1,0.8,1.6,1.8,1.6,2.9v0.3l4.3-20c0,0,6.1-0.8,12.3-1.7
			c-5.7,16.1-9.9,45.2-9.9,45.2c-0.1,0.4-0.2,0.9-0.3,1.3s-0.1,0.9-0.1,1.3c0,1.1,0.3,1.9,0.8,2.3s1.4,0.6,2.5,0.6
			c0.8,0,1.5-0.2,2.2-0.5c0.7-0.4,1.3-0.8,1.8-1.5c0.5-0.6,1-1.4,1.4-2.3c0.4-0.9,0.8-1.8,1.1-2.9H464.5z M440.3,288.5l3.9-18.5
			c-0.1-0.2-0.1-0.5-0.3-0.8c-0.1-0.3-0.3-0.6-0.5-0.9c-0.2-0.3-0.6-0.6-1-0.7c-0.4-0.2-0.9-0.3-1.6-0.3c-1.1,0-2.2,0.4-3.2,1.1
			c-1,0.7-1.9,1.7-2.8,2.9c-0.8,1.2-1.6,2.6-2.2,4.2c-0.7,1.5-1.2,3.1-1.7,4.8c-0.5,1.6-0.8,3.3-1,4.8c-0.2,1.6-0.4,3-0.4,4.3
			c0,1.5,0.1,2.7,0.4,3.6c0.3,0.8,0.6,1.5,1,1.9c0.4,0.4,0.8,0.7,1.3,0.7c0.5,0.1,0.9,0.1,1.3,0.1c0.6,0,1.2-0.1,1.8-0.4
			c0.7-0.3,1.3-0.7,1.9-1.2c0.6-0.6,1.2-1.2,1.7-2.1c0.5-0.8,0.9-1.8,1.2-3L440.3,288.5L440.3,288.5z"/>
		<path id="Shape_00000116224862159250564540000007360086334047952771_" class="st1" d="M500.8,276.6c-1.4,1.8-5,3.3-8.2,2.5
			c-0.3,3.7-1,7.1-2.1,10.1c-1.1,3-2.5,5.5-4.2,7.6c-1.7,2.1-3.7,3.7-5.9,4.8c-2.2,1.1-4.5,1.7-7,1.7c-1.9,0-3.6-0.2-5.2-0.7
			c-1.6-0.5-3-1.2-4.1-2.2c-1.1-1-2-2.3-2.7-3.9c-0.6-1.6-1-3.6-1-5.9c0-1.6,0.2-3.4,0.5-5.4c0.3-2,0.9-4.1,1.6-6.2
			c0.7-2.1,1.7-4.2,2.8-6.2c1.1-2,2.5-3.9,4.2-5.5c1.6-1.6,3.5-2.9,5.7-3.9c2.2-1,4.6-1.5,7.4-1.5c6.9,0,10.4,4.3,10.4,12.9
			c0,0,0,0.1,0,0.1c2.3,2.9,7-0.1,8.7-1.9 M486,279.3c-0.8-0.2-1.4-0.6-1.7-1.2c-0.3-0.6-0.5-1.3-0.5-2.1c0-1.1,0.2-2.1,0.7-2.8
			c0.5-0.7,1.1-1.3,1.8-1.6c-0.1-0.9-0.1-1.6-0.3-2.2c-0.1-0.6-0.3-1.1-0.6-1.5c-0.2-0.4-0.5-0.6-0.9-0.8c-0.4-0.2-0.8-0.2-1.4-0.2
			c-1,0-1.9,0.4-2.8,1.1c-0.9,0.7-1.7,1.7-2.5,3c-0.8,1.2-1.5,2.6-2.2,4.2c-0.7,1.6-1.2,3.2-1.7,4.9c-0.5,1.7-0.8,3.3-1.1,5
			c-0.3,1.6-0.4,3.1-0.4,4.5c0,1.3,0.1,2.4,0.2,3.3c0.1,0.8,0.4,1.5,0.7,2s0.8,0.8,1.3,1c0.5,0.2,1.2,0.3,1.9,0.3c1,0,2-0.4,2.9-1.3
			c1-0.9,1.9-2,2.7-3.5c0.8-1.5,1.6-3.3,2.2-5.3C485.2,283.9,485.6,281.7,486,279.3"/>
		<path id="Shape_00000150782648688761556180000013409789143143286929_" class="st1" d="M522.5,289.8c0,0-0.5,4.9-3.8,8.2
			c-3.2,3.2-7.4,5.5-13.2,5.5c-1.4,0-2.7-0.2-3.7-0.7c-1-0.5-1.9-1.1-2.5-1.9c-0.6-0.8-1.1-1.8-1.4-2.9c-0.3-1.1-0.5-2.3-0.5-3.6
			c0-1.4,0.2-2.8,0.5-4.3l5.2-24.2h-2.7l0.7-3.2h2.6l2.4-11.1c0,0,10.7-4.6,13.8-8.5c-0.4,1.4-2.1,8-2.3,8.6c-0.1,0.6-0.3,1.3-0.4,2
			c-0.3,1.1-0.6,2.5-0.9,4c-0.3,1.6-0.7,3.2-1,5.1h9l-0.6,3.2h-9l-5.2,24.2c-0.1,0.5-0.2,1-0.3,1.5c-0.1,0.5-0.1,0.9-0.1,1.3
			c0,0.8,0.2,1.5,0.6,2.1c0.4,0.6,1.1,0.8,2.2,0.8C516.9,295.8,522.5,289.8,522.5,289.8"/>
		<path id="Shape_00000008857877048475027310000015758005690266803858_" class="st2" d="M540.1,296.8c0,3.7-3,6.7-6.7,6.7
			c-3.7,0-6.7-3-6.7-6.7c0-3.7,3-6.7,6.7-6.7C537.1,290.1,540.1,293.1,540.1,296.8"/>
	</g>
</g>
</svg>
